<svg width="285" height="60" viewBox="0 0 285 60" fill="none" xmlns="http://www.w3.org/2000/svg">
<path d="M210.337 26.476H226.285V31.444H215.809V36.052H225.025V41.02H215.809V52H210.337V26.476Z" fill="#373737"/>
<path d="M238.514 34.144H243.482V52H239.234L238.514 50.632C237.938 51.04 237.278 51.376 236.534 51.64C235.814 51.88 235.034 52 234.194 52C233.546 52 232.802 51.904 231.962 51.712C231.146 51.52 230.378 51.16 229.658 50.632C228.938 50.104 228.326 49.372 227.822 48.436C227.342 47.5 227.102 46.288 227.102 44.8V34.144H232.106V44.62C232.106 45.172 232.19 45.64 232.358 46.024C232.55 46.408 232.79 46.72 233.078 46.96C233.39 47.176 233.738 47.344 234.122 47.464C234.506 47.56 234.902 47.608 235.31 47.608C235.622 47.608 235.958 47.56 236.318 47.464C236.702 47.344 237.05 47.164 237.362 46.924C237.698 46.684 237.974 46.372 238.19 45.988C238.406 45.604 238.514 45.148 238.514 44.62V34.144Z" fill="#373737"/>
<path d="M256.045 34.144C256.717 34.144 257.461 34.24 258.277 34.432C259.093 34.624 259.861 34.984 260.581 35.512C261.301 36.04 261.901 36.772 262.381 37.708C262.885 38.644 263.137 39.856 263.137 41.344V52H258.133V41.524C258.133 40.972 258.037 40.504 257.845 40.12C257.677 39.736 257.437 39.436 257.125 39.22C256.837 38.98 256.501 38.812 256.117 38.716C255.733 38.596 255.349 38.536 254.965 38.536C254.653 38.536 254.305 38.596 253.921 38.716C253.561 38.812 253.213 38.98 252.877 39.22C252.565 39.46 252.301 39.772 252.085 40.156C251.869 40.54 251.761 40.996 251.761 41.524V52H246.793V34.144H251.041L251.761 35.512C252.337 35.104 252.985 34.78 253.705 34.54C254.425 34.276 255.205 34.144 256.045 34.144Z" fill="#373737"/>
<path d="M284.234 25.72V52H279.986L279.266 50.452C278.714 51.028 277.946 51.508 276.962 51.892C276.002 52.252 274.994 52.432 273.938 52.432C272.666 52.432 271.49 52.192 270.41 51.712C269.33 51.208 268.394 50.536 267.602 49.696C266.834 48.832 266.222 47.836 265.766 46.708C265.334 45.556 265.118 44.332 265.118 43.036C265.118 41.74 265.334 40.528 265.766 39.4C266.222 38.248 266.834 37.252 267.602 36.412C268.394 35.548 269.33 34.876 270.41 34.396C271.49 33.892 272.666 33.64 273.938 33.64C275.066 33.64 276.062 33.772 276.926 34.036C277.814 34.3 278.594 34.744 279.266 35.368V25.72H284.234ZM279.266 43.108C279.266 42.172 279.146 41.392 278.906 40.768C278.666 40.12 278.33 39.604 277.898 39.22C277.466 38.812 276.962 38.524 276.386 38.356C275.834 38.164 275.234 38.068 274.586 38.068C273.938 38.068 273.326 38.2 272.75 38.464C272.198 38.728 271.706 39.088 271.274 39.544C270.866 39.976 270.542 40.504 270.302 41.128C270.062 41.728 269.942 42.364 269.942 43.036C269.942 43.732 270.062 44.38 270.302 44.98C270.542 45.58 270.866 46.108 271.274 46.564C271.706 46.996 272.198 47.344 272.75 47.608C273.326 47.872 273.938 48.004 274.586 48.004C275.882 48.004 276.974 47.608 277.862 46.816C278.774 46 279.242 44.764 279.266 43.108Z" fill="#373737"/>
<path d="M14.472 34.144H18.72V45.952C18.72 47.32 18.696 48.544 18.648 49.624C18.624 50.68 18.54 51.628 18.396 52.468C18.252 53.332 18.012 54.1 17.676 54.772C17.364 55.444 16.92 56.068 16.344 56.644C15.288 57.676 14.1 58.384 12.78 58.768C11.484 59.152 10.116 59.344 8.676 59.344C7.452 59.344 6.3 59.2 5.22 58.912C4.14 58.624 3.168 58.228 2.304 57.724V53.08C2.52 53.416 2.82 53.716 3.204 53.98C3.612 54.244 4.068 54.472 4.572 54.664C5.1 54.856 5.652 55 6.228 55.096C6.828 55.216 7.428 55.276 8.028 55.276C8.82 55.276 9.564 55.168 10.26 54.952C10.956 54.76 11.556 54.436 12.06 53.98C12.588 53.524 12.996 52.948 13.284 52.252C13.596 51.58 13.752 50.752 13.752 49.768V49.408C13.056 50.032 12.252 50.536 11.34 50.92C10.428 51.28 9.432 51.46 8.352 51.46C7.152 51.46 6.036 51.232 5.004 50.776C3.996 50.296 3.12 49.66 2.376 48.868C1.632 48.052 1.044 47.104 0.612 46.024C0.204 44.92 0 43.756 0 42.532C0 41.308 0.204 40.156 0.612 39.076C1.044 37.996 1.632 37.06 2.376 36.268C3.12 35.452 3.996 34.816 5.004 34.36C6.036 33.88 7.152 33.64 8.352 33.64C9.48 33.64 10.5 33.796 11.412 34.108C12.324 34.396 13.104 34.864 13.752 35.512L14.472 34.144ZM9.36 47.032C10.128 47.032 10.788 46.9 11.34 46.636C11.892 46.348 12.348 45.988 12.708 45.556C13.068 45.124 13.332 44.644 13.5 44.116C13.668 43.588 13.752 43.072 13.752 42.568C13.752 42.016 13.656 41.476 13.464 40.948C13.296 40.396 13.032 39.916 12.672 39.508C12.312 39.076 11.856 38.728 11.304 38.464C10.752 38.2 10.104 38.068 9.36 38.068C8.736 38.068 8.16 38.188 7.632 38.428C7.104 38.668 6.636 38.992 6.228 39.4C5.844 39.808 5.532 40.288 5.292 40.84C5.076 41.368 4.968 41.944 4.968 42.568C4.968 43.192 5.076 43.78 5.292 44.332C5.532 44.86 5.844 45.328 6.228 45.736C6.636 46.144 7.104 46.468 7.632 46.708C8.16 46.924 8.736 47.032 9.36 47.032Z" fill="#5CBA47"/>
<path d="M26.7038 36.628C26.9438 36.244 27.2198 35.884 27.5318 35.548C27.8438 35.188 28.2158 34.876 28.6478 34.612C29.0798 34.324 29.5718 34.096 30.1238 33.928C30.6758 33.76 31.2998 33.676 31.9958 33.676C32.8118 33.676 33.7598 33.82 34.8398 34.108L34.3718 38.536C34.1078 38.488 33.8438 38.428 33.5798 38.356C33.3638 38.308 33.1238 38.272 32.8598 38.248C32.5958 38.2 32.3558 38.176 32.1398 38.176C31.3718 38.176 30.6518 38.284 29.9798 38.5C29.3318 38.716 28.7678 39.016 28.2878 39.4C27.8078 39.784 27.4238 40.252 27.1358 40.804C26.8478 41.332 26.7038 41.908 26.7038 42.532V52H21.7358V34.144H26.2358L26.7038 36.628Z" fill="#5CBA47"/>
<path d="M55.3278 34.144V52H51.0438L50.5398 50.092C49.8438 51.028 49.0038 51.652 48.0198 51.964C47.0598 52.276 46.0518 52.432 44.9958 52.432C43.7238 52.432 42.5478 52.192 41.4678 51.712C40.4118 51.208 39.4878 50.536 38.6958 49.696C37.9038 48.832 37.2798 47.836 36.8238 46.708C36.3918 45.556 36.1758 44.332 36.1758 43.036C36.1758 41.74 36.3918 40.528 36.8238 39.4C37.2798 38.248 37.9038 37.252 38.6958 36.412C39.4878 35.548 40.4118 34.876 41.4678 34.396C42.5478 33.892 43.7238 33.64 44.9958 33.64C46.1478 33.64 47.2038 33.82 48.1638 34.18C49.1238 34.54 49.9158 35.116 50.5398 35.908L51.0438 34.144H55.3278ZM50.3598 43.108C50.3598 42.172 50.2278 41.392 49.9638 40.768C49.7238 40.12 49.3878 39.604 48.9558 39.22C48.5478 38.812 48.0558 38.524 47.4798 38.356C46.9278 38.164 46.3278 38.068 45.6798 38.068C45.0318 38.068 44.4198 38.2 43.8438 38.464C43.2918 38.728 42.7998 39.088 42.3678 39.544C41.9358 39.976 41.5998 40.504 41.3598 41.128C41.1198 41.728 40.9998 42.364 40.9998 43.036C40.9998 43.732 41.1198 44.38 41.3598 44.98C41.5998 45.58 41.9358 46.108 42.3678 46.564C42.7998 46.996 43.2918 47.344 43.8438 47.608C44.4198 47.872 45.0318 48.004 45.6798 48.004C46.9758 48.004 48.0678 47.608 48.9558 46.816C49.8678 46 50.3358 44.764 50.3598 43.108Z" fill="#5CBA47"/>
<path d="M69.8861 42.64C71.2061 43.576 71.8661 44.908 71.8661 46.636C71.8661 47.428 71.6741 48.172 71.2901 48.868C70.9301 49.564 70.4261 50.176 69.7781 50.704C69.1301 51.232 68.3741 51.652 67.5101 51.964C66.6461 52.252 65.7221 52.396 64.7381 52.396C63.9941 52.396 63.2621 52.3 62.5421 52.108C61.8461 51.916 61.1981 51.652 60.5981 51.316C59.9981 50.98 59.4701 50.584 59.0141 50.128C58.5821 49.648 58.2581 49.12 58.0421 48.544C58.5941 48.28 59.2061 47.992 59.8781 47.68C60.5501 47.344 61.1381 47.044 61.6421 46.78C61.8581 47.14 62.1941 47.476 62.6501 47.788C63.1061 48.076 63.7301 48.22 64.5221 48.22C65.3381 48.22 65.9381 48.028 66.3221 47.644C66.7061 47.26 66.8981 46.9 66.8981 46.564C66.8981 46.324 66.7661 46.108 66.5021 45.916C66.2381 45.7 65.9381 45.532 65.6021 45.412C65.1221 45.22 64.7261 45.124 64.4141 45.124C64.1021 45.1 63.7421 45.028 63.3341 44.908C62.0381 44.596 61.0421 44.188 60.3461 43.684C59.6741 43.156 59.1821 42.628 58.8701 42.1C58.5581 41.572 58.3781 41.068 58.3301 40.588C58.3061 40.108 58.2941 39.724 58.2941 39.436C58.2941 38.668 58.4621 37.936 58.7981 37.24C59.1341 36.544 59.5901 35.944 60.1661 35.44C60.7661 34.912 61.4501 34.492 62.2181 34.18C63.0101 33.868 63.8501 33.712 64.7381 33.712C65.4821 33.712 66.1901 33.82 66.8621 34.036C67.5341 34.252 68.1461 34.552 68.6981 34.936C69.2501 35.32 69.7181 35.776 70.1021 36.304C70.5101 36.832 70.8101 37.42 71.0021 38.068L67.1501 39.364C67.0061 38.932 66.7061 38.584 66.2501 38.32C65.8181 38.056 65.3501 37.924 64.8461 37.924C64.3421 37.924 63.9341 38.092 63.6221 38.428C63.3101 38.764 63.1541 39.1 63.1541 39.436C63.1541 39.844 63.2981 40.168 63.5861 40.408C63.8981 40.624 64.2341 40.78 64.5941 40.876C64.8581 40.924 65.1101 40.972 65.3501 41.02C65.6141 41.044 65.8661 41.08 66.1061 41.128C66.9461 41.32 67.6661 41.536 68.2661 41.776C68.8901 42.016 69.4301 42.304 69.8861 42.64Z" fill="#5CBA47"/>
<path d="M85.8471 42.64C87.1671 43.576 87.8271 44.908 87.8271 46.636C87.8271 47.428 87.6351 48.172 87.2511 48.868C86.8911 49.564 86.3871 50.176 85.7391 50.704C85.0911 51.232 84.3351 51.652 83.4711 51.964C82.6071 52.252 81.6831 52.396 80.6991 52.396C79.9551 52.396 79.2231 52.3 78.5031 52.108C77.8071 51.916 77.1591 51.652 76.5591 51.316C75.9591 50.98 75.4311 50.584 74.9751 50.128C74.5431 49.648 74.2191 49.12 74.0031 48.544C74.5551 48.28 75.1671 47.992 75.8391 47.68C76.5111 47.344 77.0991 47.044 77.6031 46.78C77.8191 47.14 78.1551 47.476 78.6111 47.788C79.0671 48.076 79.6911 48.22 80.4831 48.22C81.2991 48.22 81.8991 48.028 82.2831 47.644C82.6671 47.26 82.8591 46.9 82.8591 46.564C82.8591 46.324 82.7271 46.108 82.4631 45.916C82.1991 45.7 81.8991 45.532 81.5631 45.412C81.0831 45.22 80.6871 45.124 80.3751 45.124C80.0631 45.1 79.7031 45.028 79.2951 44.908C77.9991 44.596 77.0031 44.188 76.3071 43.684C75.6351 43.156 75.1431 42.628 74.8311 42.1C74.5191 41.572 74.3391 41.068 74.2911 40.588C74.2671 40.108 74.2551 39.724 74.2551 39.436C74.2551 38.668 74.4231 37.936 74.7591 37.24C75.0951 36.544 75.5511 35.944 76.1271 35.44C76.7271 34.912 77.4111 34.492 78.1791 34.18C78.9711 33.868 79.8111 33.712 80.6991 33.712C81.4431 33.712 82.1511 33.82 82.8231 34.036C83.4951 34.252 84.1071 34.552 84.6591 34.936C85.2111 35.32 85.6791 35.776 86.0631 36.304C86.4711 36.832 86.7711 37.42 86.9631 38.068L83.1111 39.364C82.9671 38.932 82.6671 38.584 82.2111 38.32C81.7791 38.056 81.3111 37.924 80.8071 37.924C80.3031 37.924 79.8951 38.092 79.5831 38.428C79.2711 38.764 79.1151 39.1 79.1151 39.436C79.1151 39.844 79.2591 40.168 79.5471 40.408C79.8591 40.624 80.1951 40.78 80.5551 40.876C80.8191 40.924 81.0711 40.972 81.3111 41.02C81.5751 41.044 81.8271 41.08 82.0671 41.128C82.9071 41.32 83.6271 41.536 84.2271 41.776C84.8511 42.016 85.3911 42.304 85.8471 42.64Z" fill="#5CBA47"/>
<path d="M100.404 33.64C101.58 33.64 102.672 33.892 103.68 34.396C104.712 34.876 105.6 35.548 106.344 36.412C107.088 37.252 107.664 38.248 108.072 39.4C108.504 40.528 108.72 41.74 108.72 43.036V52H103.86V48.724C103.86 47.812 103.86 46.876 103.86 45.916C103.884 44.932 103.896 44.092 103.896 43.396C103.896 42.724 103.788 42.064 103.572 41.416C103.356 40.768 103.056 40.204 102.672 39.724C102.288 39.22 101.832 38.824 101.304 38.536C100.8 38.224 100.26 38.068 99.684 38.068C99.132 38.068 98.604 38.176 98.1 38.392C97.596 38.584 97.152 38.884 96.768 39.292C96.384 39.676 96.072 40.168 95.832 40.768C95.616 41.368 95.508 42.076 95.508 42.892V52H90.504V25.72H95.508V35.512C96.132 34.912 96.84 34.456 97.632 34.144C98.448 33.808 99.372 33.64 100.404 33.64Z" fill="#5CBA47"/>
<path d="M119.748 33.64C121.02 33.64 122.22 33.892 123.348 34.396C124.476 34.876 125.46 35.548 126.3 36.412C127.14 37.252 127.8 38.248 128.28 39.4C128.784 40.528 129.036 41.74 129.036 43.036C129.036 44.332 128.784 45.556 128.28 46.708C127.8 47.836 127.14 48.832 126.3 49.696C125.46 50.536 124.476 51.208 123.348 51.712C122.22 52.192 121.02 52.432 119.748 52.432C118.452 52.432 117.24 52.192 116.112 51.712C114.984 51.208 114 50.536 113.16 49.696C112.32 48.832 111.648 47.836 111.144 46.708C110.664 45.556 110.424 44.332 110.424 43.036C110.424 41.74 110.664 40.528 111.144 39.4C111.648 38.248 112.32 37.252 113.16 36.412C114 35.548 114.984 34.876 116.112 34.396C117.24 33.892 118.452 33.64 119.748 33.64ZM119.748 48.076C120.348 48.076 120.9 47.956 121.404 47.716C121.932 47.476 122.388 47.152 122.772 46.744C123.18 46.312 123.492 45.808 123.708 45.232C123.948 44.632 124.068 43.972 124.068 43.252C124.068 42.532 123.948 41.86 123.708 41.236C123.492 40.612 123.18 40.072 122.772 39.616C122.388 39.136 121.932 38.764 121.404 38.5C120.9 38.212 120.348 38.068 119.748 38.068C119.148 38.068 118.584 38.212 118.056 38.5C117.528 38.764 117.06 39.136 116.652 39.616C116.268 40.072 115.956 40.612 115.716 41.236C115.5 41.86 115.392 42.532 115.392 43.252C115.392 43.972 115.5 44.632 115.716 45.232C115.956 45.808 116.268 46.312 116.652 46.744C117.06 47.152 117.528 47.476 118.056 47.716C118.584 47.956 119.148 48.076 119.748 48.076Z" fill="#5CBA47"/>
<path d="M141.968 33.64C143.24 33.64 144.416 33.892 145.496 34.396C146.576 34.876 147.5 35.548 148.268 36.412C149.06 37.252 149.672 38.248 150.104 39.4C150.56 40.528 150.788 41.74 150.788 43.036C150.788 44.332 150.56 45.556 150.104 46.708C149.672 47.836 149.06 48.832 148.268 49.696C147.5 50.536 146.576 51.208 145.496 51.712C144.416 52.192 143.24 52.432 141.968 52.432C140.936 52.432 139.928 52.252 138.944 51.892C137.96 51.508 137.192 51.028 136.64 50.452V59.128H131.672V34.144H135.92L136.64 35.368C137.336 34.744 138.116 34.3 138.98 34.036C139.844 33.772 140.84 33.64 141.968 33.64ZM141.32 48.004C141.968 48.004 142.568 47.872 143.12 47.608C143.696 47.344 144.188 46.996 144.596 46.564C145.028 46.108 145.364 45.58 145.604 44.98C145.868 44.38 146 43.732 146 43.036C146 42.364 145.868 41.728 145.604 41.128C145.364 40.504 145.028 39.976 144.596 39.544C144.188 39.088 143.696 38.728 143.12 38.464C142.568 38.2 141.968 38.068 141.32 38.068C140.672 38.068 140.06 38.164 139.484 38.356C138.932 38.524 138.44 38.812 138.008 39.22C137.6 39.604 137.276 40.12 137.036 40.768C136.796 41.392 136.676 42.148 136.676 43.036C136.676 43.876 136.796 44.608 137.036 45.232C137.276 45.832 137.6 46.348 138.008 46.78C138.44 47.188 138.932 47.5 139.484 47.716C140.06 47.908 140.672 48.004 141.32 48.004Z" fill="#5CBA47"/>
<path d="M163.238 33.64C164.51 33.64 165.686 33.892 166.766 34.396C167.846 34.876 168.77 35.548 169.538 36.412C170.329 37.252 170.941 38.248 171.374 39.4C171.829 40.528 172.057 41.74 172.057 43.036C172.057 44.332 171.829 45.556 171.374 46.708C170.941 47.836 170.329 48.832 169.538 49.696C168.77 50.536 167.846 51.208 166.766 51.712C165.686 52.192 164.51 52.432 163.238 52.432C162.206 52.432 161.197 52.252 160.214 51.892C159.23 51.508 158.462 51.028 157.91 50.452V59.128H152.941V34.144H157.189L157.91 35.368C158.605 34.744 159.385 34.3 160.249 34.036C161.113 33.772 162.109 33.64 163.238 33.64ZM162.589 48.004C163.237 48.004 163.837 47.872 164.389 47.608C164.965 47.344 165.457 46.996 165.865 46.564C166.298 46.108 166.633 45.58 166.874 44.98C167.138 44.38 167.27 43.732 167.27 43.036C167.27 42.364 167.138 41.728 166.874 41.128C166.633 40.504 166.298 39.976 165.865 39.544C165.457 39.088 164.965 38.728 164.389 38.464C163.837 38.2 163.237 38.068 162.589 38.068C161.941 38.068 161.329 38.164 160.753 38.356C160.201 38.524 159.71 38.812 159.277 39.22C158.869 39.604 158.546 40.12 158.305 40.768C158.065 41.392 157.945 42.148 157.945 43.036C157.945 43.876 158.065 44.608 158.305 45.232C158.546 45.832 158.869 46.348 159.277 46.78C159.71 47.188 160.201 47.5 160.753 47.716C161.329 47.908 161.941 48.004 162.589 48.004Z" fill="#5CBA47"/>
<path d="M182.995 33.64C184.339 33.64 185.563 33.916 186.667 34.468C187.771 34.996 188.719 35.704 189.511 36.592C190.303 37.456 190.915 38.464 191.347 39.616C191.779 40.744 191.995 41.908 191.995 43.108C191.995 43.828 191.899 44.596 191.707 45.412H178.963C179.443 46.228 180.127 46.924 181.015 47.5C181.903 48.052 182.863 48.328 183.895 48.328C184.927 48.328 185.827 48.244 186.595 48.076C187.387 47.908 188.131 47.692 188.827 47.428L190.483 50.488C189.595 51.112 188.575 51.592 187.423 51.928C186.295 52.264 185.083 52.432 183.787 52.432C182.371 52.432 181.051 52.192 179.827 51.712C178.603 51.208 177.535 50.536 176.623 49.696C175.711 48.856 174.991 47.86 174.463 46.708C173.935 45.556 173.671 44.332 173.671 43.036C173.671 41.764 173.911 40.564 174.391 39.436C174.871 38.284 175.531 37.288 176.371 36.448C177.235 35.584 178.231 34.9 179.359 34.396C180.487 33.892 181.699 33.64 182.995 33.64ZM187.063 41.56C186.775 40.528 186.259 39.688 185.515 39.04C184.771 38.392 183.931 38.068 182.995 38.068C182.035 38.068 181.159 38.392 180.367 39.04C179.599 39.688 179.071 40.528 178.783 41.56H187.063Z" fill="#5CBA47"/>
<path d="M200.481 36.628C200.721 36.244 200.997 35.884 201.309 35.548C201.621 35.188 201.993 34.876 202.425 34.612C202.857 34.324 203.349 34.096 203.901 33.928C204.453 33.76 205.077 33.676 205.773 33.676C206.589 33.676 207.537 33.82 208.617 34.108L208.149 38.536C207.885 38.488 207.621 38.428 207.357 38.356C207.141 38.308 206.901 38.272 206.637 38.248C206.373 38.2 206.133 38.176 205.917 38.176C205.149 38.176 204.429 38.284 203.757 38.5C203.109 38.716 202.545 39.016 202.065 39.4C201.585 39.784 201.201 40.252 200.913 40.804C200.625 41.332 200.481 41.908 200.481 42.532V52H195.513V34.144H200.013L200.481 36.628Z" fill="#5CBA47"/>
<path d="M241.641 13.2773L217.848 12.3555V13.8945L241.641 13.2773Z" fill="#5CBA47"/>
<path d="M250.403 26.25C236.942 26.25 228.18 13.125 228.18 13.125C228.18 13.125 236.942 0 250.403 0C263.864 0 276.938 13.125 276.938 13.125C276.938 13.125 263.864 26.25 250.403 26.25Z" fill="#5CBA47"/>
<path d="M250.403 0C236.942 0 228.18 13.125 228.18 13.125H276.938C276.938 13.125 263.864 0 250.403 0Z" fill="#22A337"/>
</svg>
