<svg width="349" height="60" viewBox="0 0 349 60" fill="none" xmlns="http://www.w3.org/2000/svg">
<g clip-path="url(#clip0)">
<path d="M210.34 26.48H226.29V31.48H215.81V36.09H225V41.09H215.79V52H210.32L210.34 26.48Z" fill="#373737"/>
<path d="M238.51 34.1399H243.51V51.9999H239.26L238.54 50.6299C237.926 51.059 237.252 51.3959 236.54 51.6299C235.785 51.8754 234.994 51.997 234.2 51.9899C233.448 51.9746 232.701 51.8773 231.97 51.6999C231.138 51.5004 230.355 51.1329 229.67 50.6199C228.904 50.0334 228.276 49.2858 227.83 48.4299C227.308 47.2898 227.061 46.0429 227.11 44.7899V34.1399H232.11V44.6199C232.095 45.0989 232.18 45.5757 232.36 46.0199C232.529 46.3815 232.775 46.7021 233.08 46.9599C233.386 47.1761 233.723 47.3447 234.08 47.4599C234.469 47.5602 234.869 47.6106 235.27 47.6099C235.609 47.6047 235.945 47.5542 236.27 47.4599C236.632 47.3387 236.97 47.156 237.27 46.9199C237.611 46.6744 237.895 46.357 238.1 45.9899C238.325 45.5692 238.435 45.0967 238.42 44.6199L238.51 34.1399Z" fill="#373737"/>
<path d="M256.05 34.14C256.802 34.1525 257.55 34.2498 258.28 34.43C259.112 34.6295 259.895 34.9971 260.58 35.51C261.344 36.0919 261.961 36.8456 262.38 37.71C262.931 38.838 263.192 40.0856 263.14 41.34V52H258.14V41.52C258.156 41.038 258.06 40.5588 257.86 40.12C257.706 39.7601 257.457 39.4489 257.14 39.22C256.849 38.9788 256.507 38.8077 256.14 38.72C255.765 38.6018 255.374 38.5412 254.98 38.54C254.64 38.5511 254.303 38.6117 253.98 38.72C253.618 38.8226 253.279 38.9922 252.98 39.22C252.653 39.474 252.384 39.7944 252.19 40.16C251.962 40.5763 251.848 41.0455 251.86 41.52V52H246.86V34.14H251L251.72 35.51C252.332 35.0774 253.007 34.7403 253.72 34.51C254.469 34.2527 255.258 34.1275 256.05 34.14V34.14Z" fill="#373737"/>
<path d="M284.23 25.72V52H280L279.28 50.45C278.634 51.0899 277.856 51.5813 277 51.89C274.874 52.6682 272.53 52.6038 270.45 51.71C269.393 51.2307 268.439 50.5516 267.64 49.71C266.859 48.8246 266.24 47.8092 265.81 46.71C265.37 45.5369 265.149 44.2928 265.16 43.04C265.147 41.7966 265.367 40.5619 265.81 39.4C266.228 38.2949 266.849 37.2775 267.64 36.4C268.429 35.5466 269.385 34.8656 270.45 34.4C271.555 33.8865 272.761 33.6269 273.98 33.64C274.994 33.6214 276.006 33.7563 276.98 34.04C277.853 34.2944 278.655 34.7499 279.32 35.37V25.72H284.23ZM279.23 43.11C279.253 42.3146 279.131 41.5216 278.87 40.77C278.67 40.1785 278.327 39.6459 277.87 39.22C277.445 38.8133 276.926 38.5179 276.36 38.36C275.781 38.1603 275.172 38.0621 274.56 38.07C273.926 38.0671 273.298 38.2001 272.72 38.46C272.168 38.7324 271.668 39.0977 271.24 39.54C270.809 40.002 270.47 40.5416 270.24 41.13C269.998 41.7375 269.876 42.386 269.88 43.04C269.891 43.7144 270.034 44.3801 270.3 45C270.538 45.5811 270.877 46.1158 271.3 46.58C271.735 46.9923 272.235 47.3301 272.78 47.58C273.358 47.8399 273.986 47.9729 274.62 47.97C275.82 48.004 276.988 47.5824 277.89 46.79C278.363 46.3058 278.729 45.7286 278.967 45.095C279.204 44.4615 279.308 43.7855 279.27 43.11H279.23Z" fill="#373737"/>
<path d="M14.47 34.1401H18.72V46.0001C18.72 47.3701 18.72 48.5901 18.65 49.6701C18.6312 50.6247 18.5476 51.5768 18.4 52.5201C18.2705 53.3171 18.0281 54.0915 17.68 54.8201C17.3465 55.5172 16.8929 56.1502 16.34 56.6901C15.3509 57.6876 14.1267 58.4201 12.78 58.8201C11.4476 59.2051 10.0669 59.397 8.68004 59.3901C7.51283 59.3994 6.34947 59.2549 5.22004 58.9601C4.19517 58.6805 3.2129 58.2634 2.30004 57.7201V53.0801C2.53696 53.4372 2.84298 53.7432 3.20004 53.9801C3.63272 54.2522 4.0917 54.48 4.57004 54.6601C5.10809 54.8593 5.66395 55.0067 6.23004 55.1001C6.82264 55.2193 7.42557 55.2796 8.03004 55.2801C8.78331 55.3012 9.53537 55.2067 10.26 55.0001C10.9329 54.8194 11.5511 54.4759 12.06 54.0001C12.6008 53.5308 13.0195 52.9371 13.28 52.2701C13.6185 51.4884 13.779 50.6414 13.75 49.7901V49.4301C13.0374 50.0655 12.2227 50.576 11.34 50.9401C10.3834 51.309 9.36527 51.4923 8.34004 51.4801C7.1903 51.4801 6.05305 51.2417 5.00004 50.7801C4.01547 50.312 3.12692 49.6642 2.38004 48.8701C1.61919 48.03 1.01922 47.0571 0.610044 46.0001C0.200664 44.8893 -0.00594742 43.714 4.38708e-05 42.5301C-0.00905899 41.3525 0.197688 40.1832 0.610044 39.0801C1.01459 38.0387 1.61548 37.0847 2.38004 36.2701C3.11385 35.4613 4.0055 34.8113 5.00004 34.3601C6.05038 33.8773 7.19408 33.6315 8.35004 33.6401C9.38895 33.6275 10.4228 33.7863 11.41 34.1101C12.2922 34.3798 13.0953 34.8603 13.75 35.5101L14.47 34.1401ZM9.36004 47.0001C10.0475 47.0212 10.7309 46.888 11.36 46.6101C11.8828 46.3429 12.3482 45.976 12.73 45.5301C13.081 45.1037 13.349 44.6152 13.52 44.0901C13.6834 43.5896 13.7677 43.0666 13.77 42.5401C13.757 42.0127 13.6521 41.4915 13.46 41.0001C13.3064 40.4676 13.0366 39.9758 12.67 39.5601C12.2901 39.1327 11.8229 38.7917 11.3 38.5601C10.6902 38.2881 10.0276 38.1549 9.36004 38.1701C8.76425 38.1648 8.17428 38.2876 7.63004 38.5301C7.10571 38.7743 6.63106 39.1133 6.23004 39.5301C5.83444 39.9511 5.51623 40.4385 5.29004 40.9701C5.09975 41.4822 5.00157 42.0238 5.00004 42.5701C4.99804 43.1714 5.10651 43.768 5.32004 44.3301C5.55087 44.8502 5.86877 45.327 6.26004 45.7401C6.66381 46.1537 7.13784 46.4923 7.66004 46.7401C8.20573 46.9313 8.78217 47.0194 9.36004 47.0001V47.0001Z" fill="#5CBA47"/>
<path d="M26.7 36.63C26.9394 36.2429 27.2175 35.881 27.53 35.55C27.8542 35.1824 28.2317 34.8656 28.65 34.61C29.1039 34.3123 29.5992 34.0832 30.12 33.93C30.7308 33.7542 31.3644 33.67 32 33.68C32.9612 33.7002 33.9158 33.8447 34.84 34.11L34.37 38.54C34.11 38.54 33.84 38.43 33.58 38.36C33.343 38.3059 33.1023 38.2691 32.86 38.25C32.6227 38.2038 32.3817 38.1804 32.14 38.18C31.4142 38.1731 30.692 38.2811 30 38.5C29.3888 38.7 28.817 39.0045 28.31 39.4C27.8298 39.7779 27.4374 40.2556 27.16 40.8C26.8688 41.3299 26.7173 41.9253 26.72 42.53V52H21.72V34.14H26.22L26.7 36.63Z" fill="#5CBA47"/>
<path d="M55.3301 34.1399V51.9999H51.0001L50.5001 50.0899C49.894 50.979 49.0172 51.6488 48.0001 51.9999C47.0317 52.3164 46.0188 52.4751 45.0001 52.4699C43.7857 52.4827 42.5824 52.2373 41.4701 51.7499C40.4285 51.2645 39.4885 50.5858 38.7001 49.7499C37.8972 48.8718 37.2602 47.8553 36.8201 46.7499C36.3784 45.5498 36.1615 44.2786 36.1801 42.9999C36.1684 41.7576 36.3853 40.5237 36.8201 39.3599C37.2479 38.2483 37.8863 37.2297 38.7001 36.3599C39.4778 35.5118 40.4203 34.8312 41.4701 34.3599C42.5782 33.8593 43.7844 33.6132 45.0001 33.6399C46.0774 33.6276 47.148 33.8105 48.1601 34.1799C49.099 34.5237 49.9233 35.1229 50.5401 35.9099L51.0401 34.1399H55.3301ZM50.3301 43.1399C50.3569 42.3408 50.2208 41.5447 49.9301 40.7999C49.731 40.208 49.3872 39.6752 48.9301 39.2499C48.5212 38.8377 48.0106 38.541 47.4501 38.3899C46.8717 38.1886 46.2624 38.0904 45.6501 38.0999C45.0159 38.097 44.3885 38.23 43.8101 38.4899C43.2599 38.7599 42.7622 39.1256 42.3401 39.5699C41.9 40.0248 41.5594 40.5662 41.3401 41.1599C41.1135 41.7468 40.9982 42.3708 41.0001 42.9999C40.9871 43.6838 41.1094 44.3635 41.3601 44.9999C41.5891 45.5858 41.9286 46.1222 42.3601 46.5799C42.7899 46.9941 43.287 47.3322 43.8301 47.5799C44.4085 47.8398 45.0359 47.9728 45.6701 47.9699C46.8864 48.0276 48.0785 47.6159 49.0001 46.8199C49.4755 46.3323 49.8424 45.7497 50.0768 45.1103C50.3112 44.4709 50.4077 43.7892 50.3601 43.1099L50.3301 43.1399Z" fill="#5CBA47"/>
<path d="M69.89 42.64C70.8346 43.3357 71.4963 44.349 71.7535 45.4936C72.0107 46.6381 71.8461 47.8371 71.29 48.87C70.9203 49.579 70.4059 50.2025 69.78 50.7C69.1031 51.2598 68.3354 51.6995 67.51 52C65.8935 52.5361 64.1557 52.5882 62.51 52.15C61.8348 51.9631 61.1837 51.698 60.57 51.36C59.9954 51.02 59.4676 50.6065 59 50.13C58.5692 49.668 58.2299 49.1284 58 48.54L59.84 47.68L61.6 46.78C61.8581 47.1809 62.1991 47.5219 62.6 47.78C63.1707 48.0958 63.8187 48.2448 64.47 48.21C64.7936 48.2391 65.1198 48.2028 65.429 48.1031C65.7383 48.0035 66.0243 47.8426 66.27 47.63C66.4337 47.4977 66.5694 47.334 66.669 47.1486C66.7686 46.9631 66.8301 46.7596 66.85 46.55C66.8429 46.4182 66.8025 46.2904 66.7326 46.1784C66.6626 46.0665 66.5654 45.9741 66.45 45.91C66.1837 45.6864 65.8787 45.5135 65.55 45.4C65.1742 45.2319 64.771 45.1336 64.36 45.11C63.9935 45.0793 63.6314 45.0088 63.28 44.9C62.2092 44.69 61.19 44.2721 60.28 43.67C59.6894 43.2437 59.1869 42.7072 58.8 42.09C58.5144 41.631 58.3302 41.1161 58.26 40.58C58.26 40.1 58.26 39.71 58.26 39.43C58.26 38.6674 58.4344 37.9149 58.77 37.23C59.0942 36.5399 59.5612 35.9264 60.14 35.43C60.7304 34.8997 61.4067 34.4736 62.14 34.17C62.9429 33.8559 63.7979 33.6965 64.66 33.7C65.3797 33.6966 66.0954 33.808 66.78 34.03C67.4367 34.2318 68.0576 34.5355 68.62 34.93C69.1597 35.3016 69.6329 35.7614 70.02 36.29C70.429 36.8179 70.7344 37.4185 70.92 38.06L67.07 39.35C66.9061 38.9156 66.5849 38.5586 66.17 38.35C65.7492 38.09 65.2646 37.9516 64.77 37.95C64.5402 37.9404 64.3111 37.981 64.0986 38.0691C63.8862 38.1572 63.6955 38.2906 63.54 38.46C63.261 38.7208 63.0927 39.0788 63.07 39.46C63.0598 39.6495 63.0943 39.8388 63.1707 40.0125C63.2471 40.1862 63.3634 40.3395 63.51 40.46C63.8154 40.6703 64.1532 40.8291 64.51 40.93L65.27 41.07C65.5254 41.0904 65.7793 41.1272 66.03 41.18C66.7658 41.34 67.4881 41.5574 68.19 41.83C68.7911 42.021 69.3631 42.2935 69.89 42.64V42.64Z" fill="#5CBA47"/>
<path d="M85.85 42.64C86.4947 43.0829 87.0164 43.6823 87.3662 44.3819C87.7161 45.0815 87.8825 45.8585 87.85 46.64C87.8535 47.4211 87.6536 48.1896 87.27 48.87C86.9003 49.579 86.3859 50.2025 85.76 50.7C85.0786 51.264 84.3035 51.704 83.47 52C81.8535 52.5361 80.1157 52.5882 78.47 52.15C77.7948 51.9631 77.1437 51.698 76.53 51.36C75.9673 51.0203 75.4527 50.6066 75 50.13C74.5671 49.6696 74.2275 49.1297 74 48.54L75.84 47.68L77.6 46.78C77.8935 47.269 78.3204 47.6641 78.8304 47.9192C79.3405 48.1742 79.9127 48.2786 80.48 48.22C80.8036 48.2491 81.1298 48.2128 81.439 48.1131C81.7483 48.0135 82.0343 47.8526 82.28 47.64C82.4437 47.5077 82.5794 47.344 82.679 47.1586C82.7786 46.9731 82.8401 46.7696 82.86 46.56C82.8529 46.4282 82.8125 46.3004 82.7426 46.1884C82.6726 46.0765 82.5754 45.9842 82.46 45.92C82.1938 45.6964 81.8887 45.5235 81.56 45.41C81.1873 45.2431 80.7876 45.1448 80.38 45.12C80.0132 45.0911 79.6509 45.0207 79.3 44.91C78.2291 44.7005 77.2098 44.2826 76.3 43.68C75.712 43.2507 75.21 42.7148 74.82 42.1C74.5344 41.641 74.3502 41.1261 74.28 40.59C74.28 40.11 74.28 39.72 74.28 39.44C74.2769 38.6782 74.4479 37.9257 74.78 37.24C75.1075 36.5519 75.574 35.939 76.15 35.44C76.7555 34.9049 77.4491 34.4786 78.2 34.18C79.0029 33.866 79.8579 33.7065 80.72 33.71C81.4397 33.7066 82.1554 33.818 82.84 34.04C83.4975 34.2398 84.1187 34.5436 84.68 34.94C85.2197 35.3116 85.6929 35.7714 86.08 36.3C86.489 36.8279 86.7944 37.4285 86.98 38.07L83.13 39.36C82.9661 38.9256 82.6449 38.5686 82.23 38.36C81.8092 38.1001 81.3246 37.9616 80.83 37.96C80.6004 37.9517 80.3717 37.993 80.1594 38.081C79.9472 38.169 79.7564 38.3017 79.6 38.47C79.3238 38.7318 79.1591 39.09 79.14 39.47C79.1278 39.6588 79.1604 39.8478 79.2351 40.0216C79.3098 40.1954 79.4246 40.349 79.57 40.47C79.8759 40.6794 80.2136 40.8381 80.57 40.94L81.32 41.08C81.5755 41.0998 81.8294 41.1366 82.08 41.19C82.8158 41.35 83.538 41.5674 84.24 41.84C84.8093 42.0352 85.3506 42.3042 85.85 42.64V42.64Z" fill="#5CBA47"/>
<path d="M100.4 33.64C101.538 33.629 102.663 33.8895 103.68 34.4C104.7 34.8686 105.607 35.5506 106.34 36.4C107.107 37.2775 107.695 38.2967 108.07 39.4C108.508 40.5632 108.728 41.7971 108.72 43.04V52.04H103.86V45.92C103.86 44.92 103.86 44.09 103.86 43.4C103.864 42.7194 103.753 42.0431 103.53 41.4C103.338 40.7824 103.033 40.2059 102.63 39.7C102.265 39.2112 101.797 38.8084 101.26 38.52C100.777 38.2084 100.214 38.045 99.64 38.05C99.0972 38.05 98.5599 38.1588 98.06 38.37C97.5527 38.5625 97.0973 38.8707 96.73 39.27C96.3188 39.6939 95.9988 40.1976 95.79 40.75C95.5654 41.4337 95.4572 42.1504 95.47 42.87V52H90.47V25.72H95.47V35.51C96.0811 34.9202 96.8012 34.4549 97.59 34.14C98.485 33.7913 99.4396 33.6214 100.4 33.64Z" fill="#5CBA47"/>
<path d="M119.75 33.6399C120.991 33.6321 122.218 33.8913 123.35 34.3999C124.475 34.8574 125.495 35.5377 126.35 36.3999C127.208 37.2578 127.888 38.2775 128.35 39.3999C128.814 40.5418 129.035 41.7678 129 42.9999C129.003 44.2626 128.744 45.5122 128.24 46.6699C127.766 47.7856 127.088 48.8031 126.24 49.6699C125.375 50.5193 124.357 51.1978 123.24 51.6699C120.922 52.6299 118.318 52.6299 116 51.6699C114.883 51.1978 113.865 50.5193 113 49.6699C112.164 48.7934 111.488 47.7783 111 46.6699C110.518 45.5066 110.273 44.2589 110.28 42.9999C110.27 41.7502 110.515 40.5117 111 39.3599C111.475 38.2447 112.153 37.2274 113 36.3599C113.855 35.4977 114.875 34.8174 116 34.3599C117.182 33.8461 118.462 33.6002 119.75 33.6399V33.6399ZM119.75 48.0799C120.32 48.0866 120.884 47.9634 121.4 47.7199C121.919 47.4822 122.385 47.1421 122.77 46.7199C123.182 46.2853 123.502 45.7716 123.71 45.2099C123.958 44.5727 124.08 43.8935 124.07 43.2099C124.075 42.5267 123.953 41.8485 123.71 41.2099C123.51 40.6116 123.19 40.0604 122.77 39.5899C122.403 39.119 121.935 38.7363 121.4 38.4699C120.899 38.1813 120.329 38.0328 119.75 38.0399C119.159 38.0352 118.577 38.1833 118.06 38.4699C117.518 38.7425 117.038 39.1238 116.65 39.5899C116.251 40.0733 115.936 40.6211 115.72 41.2099C115.497 41.853 115.386 42.5293 115.39 43.2099C115.38 43.8909 115.492 44.5682 115.72 45.2099C115.944 45.7616 116.258 46.272 116.65 46.7199C117.055 47.1365 117.533 47.4754 118.06 47.7199C118.59 47.9616 119.167 48.0844 119.75 48.0799Z" fill="#5CBA47"/>
<path d="M142 33.64C143.219 33.6268 144.425 33.8865 145.53 34.4C146.585 34.8613 147.53 35.5432 148.3 36.4C149.105 37.2671 149.727 38.2873 150.13 39.4C150.595 40.5566 150.83 41.7932 150.82 43.04C150.827 44.2962 150.593 45.5421 150.13 46.71C149.715 47.8168 149.094 48.8349 148.3 49.71C147.505 50.5881 146.532 51.2861 145.445 51.7569C144.359 52.2278 143.184 52.4607 142 52.44C140.976 52.4358 139.961 52.2531 139 51.9C138.137 51.5951 137.351 51.1034 136.7 50.46V59.14H131.7V34.14H135.95L136.67 35.37C137.334 34.7448 138.131 34.2766 139 34C139.976 33.7287 140.987 33.6073 142 33.64V33.64ZM141.32 48C141.942 48.0061 142.557 47.8728 143.12 47.61C143.673 47.375 144.176 47.0354 144.6 46.61C145.032 46.1525 145.371 45.616 145.6 45.03C145.883 44.3916 146.02 43.698 146 43C145.999 42.043 145.728 41.1057 145.219 40.2956C144.709 39.4855 143.982 38.8354 143.12 38.42C142.557 38.1571 141.942 38.0238 141.32 38.03C140.695 38.023 140.073 38.1211 139.48 38.32C138.927 38.4831 138.423 38.7783 138.01 39.18C137.558 39.6097 137.215 40.1411 137.01 40.73C136.752 41.4583 136.63 42.2276 136.65 43C136.634 43.7459 136.756 44.4884 137.01 45.19C137.24 45.7664 137.58 46.2928 138.01 46.74C138.435 47.145 138.934 47.4642 139.48 47.68C140.072 47.8843 140.693 47.9923 141.32 48V48Z" fill="#5CBA47"/>
<path d="M163.24 33.6399C164.459 33.6268 165.665 33.8865 166.77 34.3999C167.825 34.8613 168.77 35.5432 169.54 36.3999C170.345 37.267 170.967 38.2873 171.37 39.3999C171.835 40.5566 172.07 41.7932 172.06 43.0399C172.067 44.2961 171.833 45.542 171.37 46.7099C170.955 47.8168 170.334 48.8349 169.54 49.7099C168.745 50.5881 167.772 51.286 166.685 51.7569C165.599 52.2278 164.424 52.4607 163.24 52.4399C162.216 52.4358 161.201 52.2531 160.24 51.8999C159.377 51.595 158.591 51.1033 157.94 50.4599V59.1399H152.94V34.1399H157.19L157.91 35.3699C158.575 34.7407 159.376 34.272 160.25 33.9999C161.223 33.7297 162.231 33.6083 163.24 33.6399V33.6399ZM162.59 47.9999C163.212 48.006 163.827 47.8728 164.39 47.6099C164.942 47.3723 165.444 47.0331 165.87 46.6099C166.302 46.1525 166.641 45.616 166.87 45.0299C167.14 44.4192 167.277 43.7577 167.27 43.0899C167.237 41.7933 166.74 40.5515 165.87 39.5899C165.452 39.1365 164.949 38.7696 164.39 38.5099C163.827 38.2471 163.212 38.1138 162.59 38.1199C161.965 38.113 161.343 38.211 160.75 38.4099C160.197 38.5731 159.693 38.8682 159.28 39.2699C158.83 39.7016 158.488 40.2324 158.28 40.8199C158.065 41.5257 157.97 42.2627 158 42.9999C157.986 43.7449 158.104 44.4864 158.35 45.1899C158.584 45.7641 158.923 46.2897 159.35 46.7399C159.775 47.145 160.274 47.4641 160.82 47.6799C161.39 47.877 161.987 47.985 162.59 47.9999V47.9999Z" fill="#5CBA47"/>
<path d="M183 33.64C184.275 33.6254 185.535 33.9097 186.68 34.47C187.759 34.9796 188.725 35.7005 189.52 36.59C190.317 37.4653 190.941 38.4831 191.36 39.59C191.787 40.704 192.004 41.8872 192 43.08C191.995 43.8549 191.901 44.6267 191.72 45.38H179C179.498 46.2206 180.182 46.9357 181 47.47C181.865 48.0152 182.867 48.3031 183.89 48.3C184.796 48.3085 185.701 48.2248 186.59 48.05C187.348 47.8872 188.093 47.67 188.82 47.4L190.47 50.46C189.535 51.1036 188.502 51.59 187.41 51.9C186.23 52.2387 185.008 52.4071 183.78 52.4C181.129 52.4422 178.562 51.4649 176.61 49.67C175.698 48.8236 174.963 47.8037 174.45 46.67C173.922 45.519 173.653 44.2663 173.66 43C173.663 40.5347 174.632 38.1687 176.36 36.41C177.223 35.5451 178.241 34.8498 179.36 34.36C180.508 33.8617 181.749 33.6161 183 33.64V33.64ZM187.07 41.56C186.824 40.5672 186.28 39.6737 185.51 39C184.826 38.3607 183.926 38.0035 182.99 38C182.025 38.0063 181.094 38.3614 180.37 39C179.596 39.6589 179.042 40.538 178.78 41.52L187.07 41.56Z" fill="#5CBA47"/>
<path d="M200.48 36.63C200.719 36.2429 200.998 35.881 201.31 35.55C201.632 35.1802 202.01 34.863 202.43 34.61C202.884 34.3123 203.379 34.0832 203.9 33.93C204.507 33.7542 205.138 33.6699 205.77 33.68C206.735 33.6994 207.693 33.844 208.62 34.11L208.15 38.54C207.88 38.54 207.62 38.43 207.36 38.36C207.123 38.3059 206.882 38.2691 206.64 38.25C206.403 38.205 206.162 38.1815 205.92 38.18C205.188 38.171 204.458 38.279 203.76 38.5C203.148 38.6979 202.576 39.0026 202.07 39.4C201.589 39.7802 201.194 40.2572 200.91 40.8C200.626 41.3324 200.479 41.9267 200.48 42.53V52H195.48V34.14H200L200.48 36.63Z" fill="#5CBA47"/>
<path d="M241.64 13.2801L217.85 12.3601V13.8901L241.64 13.2801Z" fill="#5CBA47"/>
<path d="M250.4 26.25C236.94 26.25 228.18 13.13 228.18 13.13C228.18 13.13 236.94 0 250.4 0C263.86 0 276.94 13.13 276.94 13.13C276.94 13.13 263.86 26.25 250.4 26.25Z" fill="#5CBA47"/>
<path d="M250.4 0C236.94 0 228.18 13.13 228.18 13.13H276.94C276.94 13.13 263.86 0 250.4 0Z" fill="#22A337"/>
<path d="M348.87 32H290V49.3115H348.87V32Z" fill="#22A337"/>
<path d="M301.182 37.2369H303.359C303.578 37.2085 303.801 37.2295 304.01 37.2982C304.22 37.367 304.412 37.4817 304.572 37.6341C304.731 37.7865 304.855 37.9726 304.933 38.1789C305.012 38.3852 305.043 38.6065 305.025 38.8265C305.055 39.2391 304.938 39.649 304.695 39.9838C304.452 40.3185 304.098 40.5565 303.697 40.6556V40.6556C304.021 40.7163 304.311 40.8942 304.512 41.1554C304.712 41.4165 304.81 41.7425 304.786 42.071C304.806 42.3652 304.764 42.6603 304.662 42.9371C304.561 43.2139 304.402 43.4663 304.197 43.6779C303.991 43.8894 303.744 44.0554 303.47 44.1649C303.196 44.2745 302.903 44.3253 302.608 44.3139H300.017L301.182 37.2369ZM302.543 43.7695C302.906 43.8165 303.273 43.7198 303.566 43.5002C303.858 43.2806 304.054 42.9553 304.111 42.5936L304.165 42.2779C304.175 42.1547 304.175 42.0309 304.165 41.9077C304.165 41.3198 303.762 40.8951 302.967 40.8951H301.127L300.648 43.7695H302.543ZM302.946 40.3943C303.278 40.432 303.612 40.3397 303.878 40.1368C304.143 39.9339 304.321 39.636 304.372 39.3055L304.426 38.9898C304.436 38.8848 304.436 38.779 304.426 38.674C304.426 38.0643 304.034 37.7268 303.337 37.7268H301.715L301.269 40.4161L302.946 40.3943Z" fill="white" stroke="white"/>
<path d="M311.253 44.3465L312.429 37.2368H316.719L316.631 37.7594H312.941L312.494 40.4705H316.054L315.956 41.004H312.407L311.993 43.8239H315.673L315.597 44.3465H311.253Z" fill="white" stroke="white"/>
<path d="M325.93 37.7594L324.841 44.3465H324.242L325.331 37.7594H322.881L322.979 37.2368H328.423L328.325 37.7594H325.93Z" fill="white" stroke="white"/>
<path d="M337.808 44.3465L337.503 42.169H334.792L333.758 44.3465H333.115L336.556 37.2368H337.362L338.45 44.3465H337.808ZM336.894 37.8139H336.817L335.021 41.6028H337.427L336.894 37.8139Z" fill="white" stroke="white"/>
</g>
<defs>
<clipPath id="clip0">
<rect width="348.87" height="59.34" fill="white"/>
</clipPath>
</defs>
</svg>
