<svg width="285" height="60" viewBox="0 0 285 60" fill="none" xmlns="http://www.w3.org/2000/svg">
<path d="M210.337 26.82H226.285V31.788H215.809V36.396H225.025V41.364H215.809V52.344H210.337V26.82Z" fill="white"/>
<path d="M238.514 34.488H243.482V52.344H239.234L238.514 50.976C237.938 51.384 237.278 51.72 236.534 51.984C235.814 52.224 235.034 52.344 234.194 52.344C233.546 52.344 232.802 52.248 231.962 52.056C231.146 51.864 230.378 51.504 229.658 50.976C228.938 50.448 228.326 49.716 227.822 48.78C227.342 47.844 227.102 46.632 227.102 45.144V34.488H232.106V44.964C232.106 45.516 232.19 45.984 232.358 46.368C232.55 46.752 232.79 47.064 233.078 47.304C233.39 47.52 233.738 47.688 234.122 47.808C234.506 47.904 234.902 47.952 235.31 47.952C235.622 47.952 235.958 47.904 236.318 47.808C236.702 47.688 237.05 47.508 237.362 47.268C237.698 47.028 237.974 46.716 238.19 46.332C238.406 45.948 238.514 45.492 238.514 44.964V34.488Z" fill="white"/>
<path d="M256.045 34.488C256.717 34.488 257.461 34.584 258.277 34.776C259.093 34.968 259.861 35.328 260.581 35.856C261.301 36.384 261.901 37.116 262.381 38.052C262.885 38.988 263.137 40.2 263.137 41.688V52.344H258.133V41.868C258.133 41.316 258.037 40.848 257.845 40.464C257.677 40.08 257.437 39.78 257.125 39.564C256.837 39.324 256.501 39.156 256.117 39.06C255.733 38.94 255.349 38.88 254.965 38.88C254.653 38.88 254.305 38.94 253.921 39.06C253.561 39.156 253.213 39.324 252.877 39.564C252.565 39.804 252.301 40.116 252.085 40.5C251.869 40.884 251.761 41.34 251.761 41.868V52.344H246.793V34.488H251.041L251.761 35.856C252.337 35.448 252.985 35.124 253.705 34.884C254.425 34.62 255.205 34.488 256.045 34.488Z" fill="white"/>
<path d="M284.234 26.064V52.344H279.986L279.266 50.796C278.714 51.372 277.946 51.852 276.962 52.236C276.002 52.596 274.994 52.776 273.938 52.776C272.666 52.776 271.49 52.536 270.41 52.056C269.33 51.552 268.394 50.88 267.602 50.04C266.834 49.176 266.222 48.18 265.766 47.052C265.334 45.9 265.118 44.676 265.118 43.38C265.118 42.084 265.334 40.872 265.766 39.744C266.222 38.592 266.834 37.596 267.602 36.756C268.394 35.892 269.33 35.22 270.41 34.74C271.49 34.236 272.666 33.984 273.938 33.984C275.066 33.984 276.062 34.116 276.926 34.38C277.814 34.644 278.594 35.088 279.266 35.712V26.064H284.234ZM279.266 43.452C279.266 42.516 279.146 41.736 278.906 41.112C278.666 40.464 278.33 39.948 277.898 39.564C277.466 39.156 276.962 38.868 276.386 38.7C275.834 38.508 275.234 38.412 274.586 38.412C273.938 38.412 273.326 38.544 272.75 38.808C272.198 39.072 271.706 39.432 271.274 39.888C270.866 40.32 270.542 40.848 270.302 41.472C270.062 42.072 269.942 42.708 269.942 43.38C269.942 44.076 270.062 44.724 270.302 45.324C270.542 45.924 270.866 46.452 271.274 46.908C271.706 47.34 272.198 47.688 272.75 47.952C273.326 48.216 273.938 48.348 274.586 48.348C275.882 48.348 276.974 47.952 277.862 47.16C278.774 46.344 279.242 45.108 279.266 43.452Z" fill="white"/>
<path d="M14.472 34.488H18.72V46.296C18.72 47.664 18.696 48.888 18.648 49.968C18.624 51.024 18.54 51.972 18.396 52.812C18.252 53.676 18.012 54.444 17.676 55.116C17.364 55.788 16.92 56.412 16.344 56.988C15.288 58.02 14.1 58.728 12.78 59.112C11.484 59.496 10.116 59.688 8.676 59.688C7.452 59.688 6.3 59.544 5.22 59.256C4.14 58.968 3.168 58.572 2.304 58.068V53.424C2.52 53.76 2.82 54.06 3.204 54.324C3.612 54.588 4.068 54.816 4.572 55.008C5.1 55.2 5.652 55.344 6.228 55.44C6.828 55.56 7.428 55.62 8.028 55.62C8.82 55.62 9.564 55.512 10.26 55.296C10.956 55.104 11.556 54.78 12.06 54.324C12.588 53.868 12.996 53.292 13.284 52.596C13.596 51.924 13.752 51.096 13.752 50.112V49.752C13.056 50.376 12.252 50.88 11.34 51.264C10.428 51.624 9.432 51.804 8.352 51.804C7.152 51.804 6.036 51.576 5.004 51.12C3.996 50.64 3.12 50.004 2.376 49.212C1.632 48.396 1.044 47.448 0.612 46.368C0.204 45.264 0 44.1 0 42.876C0 41.652 0.204 40.5 0.612 39.42C1.044 38.34 1.632 37.404 2.376 36.612C3.12 35.796 3.996 35.16 5.004 34.704C6.036 34.224 7.152 33.984 8.352 33.984C9.48 33.984 10.5 34.14 11.412 34.452C12.324 34.74 13.104 35.208 13.752 35.856L14.472 34.488ZM9.36 47.376C10.128 47.376 10.788 47.244 11.34 46.98C11.892 46.692 12.348 46.332 12.708 45.9C13.068 45.468 13.332 44.988 13.5 44.46C13.668 43.932 13.752 43.416 13.752 42.912C13.752 42.36 13.656 41.82 13.464 41.292C13.296 40.74 13.032 40.26 12.672 39.852C12.312 39.42 11.856 39.072 11.304 38.808C10.752 38.544 10.104 38.412 9.36 38.412C8.736 38.412 8.16 38.532 7.632 38.772C7.104 39.012 6.636 39.336 6.228 39.744C5.844 40.152 5.532 40.632 5.292 41.184C5.076 41.712 4.968 42.288 4.968 42.912C4.968 43.536 5.076 44.124 5.292 44.676C5.532 45.204 5.844 45.672 6.228 46.08C6.636 46.488 7.104 46.812 7.632 47.052C8.16 47.268 8.736 47.376 9.36 47.376Z" fill="white"/>
<path d="M26.7038 36.972C26.9438 36.588 27.2198 36.228 27.5318 35.892C27.8438 35.532 28.2158 35.22 28.6478 34.956C29.0798 34.668 29.5718 34.44 30.1238 34.272C30.6758 34.104 31.2998 34.02 31.9958 34.02C32.8118 34.02 33.7598 34.164 34.8398 34.452L34.3718 38.88C34.1078 38.832 33.8438 38.772 33.5798 38.7C33.3638 38.652 33.1238 38.616 32.8598 38.592C32.5958 38.544 32.3558 38.52 32.1398 38.52C31.3718 38.52 30.6518 38.628 29.9798 38.844C29.3318 39.06 28.7678 39.36 28.2878 39.744C27.8078 40.128 27.4238 40.596 27.1358 41.148C26.8478 41.676 26.7038 42.252 26.7038 42.876V52.344H21.7358V34.488H26.2358L26.7038 36.972Z" fill="white"/>
<path d="M55.3278 34.488V52.344H51.0438L50.5398 50.436C49.8438 51.372 49.0038 51.996 48.0198 52.308C47.0598 52.62 46.0518 52.776 44.9958 52.776C43.7238 52.776 42.5478 52.536 41.4678 52.056C40.4118 51.552 39.4878 50.88 38.6958 50.04C37.9038 49.176 37.2798 48.18 36.8238 47.052C36.3918 45.9 36.1758 44.676 36.1758 43.38C36.1758 42.084 36.3918 40.872 36.8238 39.744C37.2798 38.592 37.9038 37.596 38.6958 36.756C39.4878 35.892 40.4118 35.22 41.4678 34.74C42.5478 34.236 43.7238 33.984 44.9958 33.984C46.1478 33.984 47.2038 34.164 48.1638 34.524C49.1238 34.884 49.9158 35.46 50.5398 36.252L51.0438 34.488H55.3278ZM50.3598 43.452C50.3598 42.516 50.2278 41.736 49.9638 41.112C49.7238 40.464 49.3878 39.948 48.9558 39.564C48.5478 39.156 48.0558 38.868 47.4798 38.7C46.9278 38.508 46.3278 38.412 45.6798 38.412C45.0318 38.412 44.4198 38.544 43.8438 38.808C43.2918 39.072 42.7998 39.432 42.3678 39.888C41.9358 40.32 41.5998 40.848 41.3598 41.472C41.1198 42.072 40.9998 42.708 40.9998 43.38C40.9998 44.076 41.1198 44.724 41.3598 45.324C41.5998 45.924 41.9358 46.452 42.3678 46.908C42.7998 47.34 43.2918 47.688 43.8438 47.952C44.4198 48.216 45.0318 48.348 45.6798 48.348C46.9758 48.348 48.0678 47.952 48.9558 47.16C49.8678 46.344 50.3358 45.108 50.3598 43.452Z" fill="white"/>
<path d="M69.8861 42.984C71.2061 43.92 71.8661 45.252 71.8661 46.98C71.8661 47.772 71.6741 48.516 71.2901 49.212C70.9301 49.908 70.4261 50.52 69.7781 51.048C69.1301 51.576 68.3741 51.996 67.5101 52.308C66.6461 52.596 65.7221 52.74 64.7381 52.74C63.9941 52.74 63.2621 52.644 62.5421 52.452C61.8461 52.26 61.1981 51.996 60.5981 51.66C59.9981 51.324 59.4701 50.928 59.0141 50.472C58.5821 49.992 58.2581 49.464 58.0421 48.888C58.5941 48.624 59.2061 48.336 59.8781 48.024C60.5501 47.688 61.1381 47.388 61.6421 47.124C61.8581 47.484 62.1941 47.82 62.6501 48.132C63.1061 48.42 63.7301 48.564 64.5221 48.564C65.3381 48.564 65.9381 48.372 66.3221 47.988C66.7061 47.604 66.8981 47.244 66.8981 46.908C66.8981 46.668 66.7661 46.452 66.5021 46.26C66.2381 46.044 65.9381 45.876 65.6021 45.756C65.1221 45.564 64.7261 45.468 64.4141 45.468C64.1021 45.444 63.7421 45.372 63.3341 45.252C62.0381 44.94 61.0421 44.532 60.3461 44.028C59.6741 43.5 59.1821 42.972 58.8701 42.444C58.5581 41.916 58.3781 41.412 58.3301 40.932C58.3061 40.452 58.2941 40.068 58.2941 39.78C58.2941 39.012 58.4621 38.28 58.7981 37.584C59.1341 36.888 59.5901 36.288 60.1661 35.784C60.7661 35.256 61.4501 34.836 62.2181 34.524C63.0101 34.212 63.8501 34.056 64.7381 34.056C65.4821 34.056 66.1901 34.164 66.8621 34.38C67.5341 34.596 68.1461 34.896 68.6981 35.28C69.2501 35.664 69.7181 36.12 70.1021 36.648C70.5101 37.176 70.8101 37.764 71.0021 38.412L67.1501 39.708C67.0061 39.276 66.7061 38.928 66.2501 38.664C65.8181 38.4 65.3501 38.268 64.8461 38.268C64.3421 38.268 63.9341 38.436 63.6221 38.772C63.3101 39.108 63.1541 39.444 63.1541 39.78C63.1541 40.188 63.2981 40.512 63.5861 40.752C63.8981 40.968 64.2341 41.124 64.5941 41.22C64.8581 41.268 65.1101 41.316 65.3501 41.364C65.6141 41.388 65.8661 41.424 66.1061 41.472C66.9461 41.664 67.6661 41.88 68.2661 42.12C68.8901 42.36 69.4301 42.648 69.8861 42.984Z" fill="white"/>
<path d="M85.8471 42.984C87.1671 43.92 87.8271 45.252 87.8271 46.98C87.8271 47.772 87.6351 48.516 87.2511 49.212C86.8911 49.908 86.3871 50.52 85.7391 51.048C85.0911 51.576 84.3351 51.996 83.4711 52.308C82.6071 52.596 81.6831 52.74 80.6991 52.74C79.9551 52.74 79.2231 52.644 78.5031 52.452C77.8071 52.26 77.1591 51.996 76.5591 51.66C75.9591 51.324 75.4311 50.928 74.9751 50.472C74.5431 49.992 74.2191 49.464 74.0031 48.888C74.5551 48.624 75.1671 48.336 75.8391 48.024C76.5111 47.688 77.0991 47.388 77.6031 47.124C77.8191 47.484 78.1551 47.82 78.6111 48.132C79.0671 48.42 79.6911 48.564 80.4831 48.564C81.2991 48.564 81.8991 48.372 82.2831 47.988C82.6671 47.604 82.8591 47.244 82.8591 46.908C82.8591 46.668 82.7271 46.452 82.4631 46.26C82.1991 46.044 81.8991 45.876 81.5631 45.756C81.0831 45.564 80.6871 45.468 80.3751 45.468C80.0631 45.444 79.7031 45.372 79.2951 45.252C77.9991 44.94 77.0031 44.532 76.3071 44.028C75.6351 43.5 75.1431 42.972 74.8311 42.444C74.5191 41.916 74.3391 41.412 74.2911 40.932C74.2671 40.452 74.2551 40.068 74.2551 39.78C74.2551 39.012 74.4231 38.28 74.7591 37.584C75.0951 36.888 75.5511 36.288 76.1271 35.784C76.7271 35.256 77.4111 34.836 78.1791 34.524C78.9711 34.212 79.8111 34.056 80.6991 34.056C81.4431 34.056 82.1511 34.164 82.8231 34.38C83.4951 34.596 84.1071 34.896 84.6591 35.28C85.2111 35.664 85.6791 36.12 86.0631 36.648C86.4711 37.176 86.7711 37.764 86.9631 38.412L83.1111 39.708C82.9671 39.276 82.6671 38.928 82.2111 38.664C81.7791 38.4 81.3111 38.268 80.8071 38.268C80.3031 38.268 79.8951 38.436 79.5831 38.772C79.2711 39.108 79.1151 39.444 79.1151 39.78C79.1151 40.188 79.2591 40.512 79.5471 40.752C79.8591 40.968 80.1951 41.124 80.5551 41.22C80.8191 41.268 81.0711 41.316 81.3111 41.364C81.5751 41.388 81.8271 41.424 82.0671 41.472C82.9071 41.664 83.6271 41.88 84.2271 42.12C84.8511 42.36 85.3911 42.648 85.8471 42.984Z" fill="white"/>
<path d="M100.404 33.984C101.58 33.984 102.672 34.236 103.68 34.74C104.712 35.22 105.6 35.892 106.344 36.756C107.088 37.596 107.664 38.592 108.072 39.744C108.504 40.872 108.72 42.084 108.72 43.38V52.344H103.86V49.068C103.86 48.156 103.86 47.22 103.86 46.26C103.884 45.276 103.896 44.436 103.896 43.74C103.896 43.068 103.788 42.408 103.572 41.76C103.356 41.112 103.056 40.548 102.672 40.068C102.288 39.564 101.832 39.168 101.304 38.88C100.8 38.568 100.26 38.412 99.684 38.412C99.132 38.412 98.604 38.52 98.1 38.736C97.596 38.928 97.152 39.228 96.768 39.636C96.384 40.02 96.072 40.512 95.832 41.112C95.616 41.712 95.508 42.42 95.508 43.236V52.344H90.504V26.064H95.508V35.856C96.132 35.256 96.84 34.8 97.632 34.488C98.448 34.152 99.372 33.984 100.404 33.984Z" fill="white"/>
<path d="M119.748 33.984C121.02 33.984 122.22 34.236 123.348 34.74C124.476 35.22 125.46 35.892 126.3 36.756C127.14 37.596 127.8 38.592 128.28 39.744C128.784 40.872 129.036 42.084 129.036 43.38C129.036 44.676 128.784 45.9 128.28 47.052C127.8 48.18 127.14 49.176 126.3 50.04C125.46 50.88 124.476 51.552 123.348 52.056C122.22 52.536 121.02 52.776 119.748 52.776C118.452 52.776 117.24 52.536 116.112 52.056C114.984 51.552 114 50.88 113.16 50.04C112.32 49.176 111.648 48.18 111.144 47.052C110.664 45.9 110.424 44.676 110.424 43.38C110.424 42.084 110.664 40.872 111.144 39.744C111.648 38.592 112.32 37.596 113.16 36.756C114 35.892 114.984 35.22 116.112 34.74C117.24 34.236 118.452 33.984 119.748 33.984ZM119.748 48.42C120.348 48.42 120.9 48.3 121.404 48.06C121.932 47.82 122.388 47.496 122.772 47.088C123.18 46.656 123.492 46.152 123.708 45.576C123.948 44.976 124.068 44.316 124.068 43.596C124.068 42.876 123.948 42.204 123.708 41.58C123.492 40.956 123.18 40.416 122.772 39.96C122.388 39.48 121.932 39.108 121.404 38.844C120.9 38.556 120.348 38.412 119.748 38.412C119.148 38.412 118.584 38.556 118.056 38.844C117.528 39.108 117.06 39.48 116.652 39.96C116.268 40.416 115.956 40.956 115.716 41.58C115.5 42.204 115.392 42.876 115.392 43.596C115.392 44.316 115.5 44.976 115.716 45.576C115.956 46.152 116.268 46.656 116.652 47.088C117.06 47.496 117.528 47.82 118.056 48.06C118.584 48.3 119.148 48.42 119.748 48.42Z" fill="white"/>
<path d="M141.968 33.984C143.24 33.984 144.416 34.236 145.496 34.74C146.576 35.22 147.5 35.892 148.268 36.756C149.06 37.596 149.672 38.592 150.104 39.744C150.56 40.872 150.788 42.084 150.788 43.38C150.788 44.676 150.56 45.9 150.104 47.052C149.672 48.18 149.06 49.176 148.268 50.04C147.5 50.88 146.576 51.552 145.496 52.056C144.416 52.536 143.24 52.776 141.968 52.776C140.936 52.776 139.928 52.596 138.944 52.236C137.96 51.852 137.192 51.372 136.64 50.796V59.472H131.672V34.488H135.92L136.64 35.712C137.336 35.088 138.116 34.644 138.98 34.38C139.844 34.116 140.84 33.984 141.968 33.984ZM141.32 48.348C141.968 48.348 142.568 48.216 143.12 47.952C143.696 47.688 144.188 47.34 144.596 46.908C145.028 46.452 145.364 45.924 145.604 45.324C145.868 44.724 146 44.076 146 43.38C146 42.708 145.868 42.072 145.604 41.472C145.364 40.848 145.028 40.32 144.596 39.888C144.188 39.432 143.696 39.072 143.12 38.808C142.568 38.544 141.968 38.412 141.32 38.412C140.672 38.412 140.06 38.508 139.484 38.7C138.932 38.868 138.44 39.156 138.008 39.564C137.6 39.948 137.276 40.464 137.036 41.112C136.796 41.736 136.676 42.492 136.676 43.38C136.676 44.22 136.796 44.952 137.036 45.576C137.276 46.176 137.6 46.692 138.008 47.124C138.44 47.532 138.932 47.844 139.484 48.06C140.06 48.252 140.672 48.348 141.32 48.348Z" fill="white"/>
<path d="M163.238 33.984C164.51 33.984 165.686 34.236 166.766 34.74C167.846 35.22 168.77 35.892 169.538 36.756C170.329 37.596 170.941 38.592 171.374 39.744C171.829 40.872 172.057 42.084 172.057 43.38C172.057 44.676 171.829 45.9 171.374 47.052C170.941 48.18 170.329 49.176 169.538 50.04C168.77 50.88 167.846 51.552 166.766 52.056C165.686 52.536 164.51 52.776 163.238 52.776C162.206 52.776 161.197 52.596 160.214 52.236C159.23 51.852 158.462 51.372 157.91 50.796V59.472H152.941V34.488H157.189L157.91 35.712C158.605 35.088 159.385 34.644 160.249 34.38C161.113 34.116 162.109 33.984 163.238 33.984ZM162.589 48.348C163.237 48.348 163.837 48.216 164.389 47.952C164.965 47.688 165.457 47.34 165.865 46.908C166.298 46.452 166.633 45.924 166.874 45.324C167.138 44.724 167.27 44.076 167.27 43.38C167.27 42.708 167.138 42.072 166.874 41.472C166.633 40.848 166.298 40.32 165.865 39.888C165.457 39.432 164.965 39.072 164.389 38.808C163.837 38.544 163.237 38.412 162.589 38.412C161.941 38.412 161.329 38.508 160.753 38.7C160.201 38.868 159.71 39.156 159.277 39.564C158.869 39.948 158.546 40.464 158.305 41.112C158.065 41.736 157.945 42.492 157.945 43.38C157.945 44.22 158.065 44.952 158.305 45.576C158.546 46.176 158.869 46.692 159.277 47.124C159.71 47.532 160.201 47.844 160.753 48.06C161.329 48.252 161.941 48.348 162.589 48.348Z" fill="white"/>
<path d="M182.995 33.984C184.339 33.984 185.563 34.26 186.667 34.812C187.771 35.34 188.719 36.048 189.511 36.936C190.303 37.8 190.915 38.808 191.347 39.96C191.779 41.088 191.995 42.252 191.995 43.452C191.995 44.172 191.899 44.94 191.707 45.756H178.963C179.443 46.572 180.127 47.268 181.015 47.844C181.903 48.396 182.863 48.672 183.895 48.672C184.927 48.672 185.827 48.588 186.595 48.42C187.387 48.252 188.131 48.036 188.827 47.772L190.483 50.832C189.595 51.456 188.575 51.936 187.423 52.272C186.295 52.608 185.083 52.776 183.787 52.776C182.371 52.776 181.051 52.536 179.827 52.056C178.603 51.552 177.535 50.88 176.623 50.04C175.711 49.2 174.991 48.204 174.463 47.052C173.935 45.9 173.671 44.676 173.671 43.38C173.671 42.108 173.911 40.908 174.391 39.78C174.871 38.628 175.531 37.632 176.371 36.792C177.235 35.928 178.231 35.244 179.359 34.74C180.487 34.236 181.699 33.984 182.995 33.984ZM187.063 41.904C186.775 40.872 186.259 40.032 185.515 39.384C184.771 38.736 183.931 38.412 182.995 38.412C182.035 38.412 181.159 38.736 180.367 39.384C179.599 40.032 179.071 40.872 178.783 41.904H187.063Z" fill="white"/>
<path d="M200.481 36.972C200.721 36.588 200.997 36.228 201.309 35.892C201.621 35.532 201.993 35.22 202.425 34.956C202.857 34.668 203.349 34.44 203.901 34.272C204.453 34.104 205.077 34.02 205.773 34.02C206.589 34.02 207.537 34.164 208.617 34.452L208.149 38.88C207.885 38.832 207.621 38.772 207.357 38.7C207.141 38.652 206.901 38.616 206.637 38.592C206.373 38.544 206.133 38.52 205.917 38.52C205.149 38.52 204.429 38.628 203.757 38.844C203.109 39.06 202.545 39.36 202.065 39.744C201.585 40.128 201.201 40.596 200.913 41.148C200.625 41.676 200.481 42.252 200.481 42.876V52.344H195.513V34.488H200.013L200.481 36.972Z" fill="white"/>
<path d="M241.641 13.6214L217.848 12.6995V14.2386L241.641 13.6214Z" fill="white"/>
<path d="M250.403 26.594C236.942 26.594 228.18 13.469 228.18 13.469C228.18 13.469 236.942 0.344025 250.403 0.344025C263.864 0.344025 276.938 13.469 276.938 13.469C276.938 13.469 263.864 26.594 250.403 26.594Z" fill="white"/>
<path d="M250.403 0.344025C236.942 0.344025 228.18 13.469 228.18 13.469H276.938C276.938 13.469 263.864 0.344025 250.403 0.344025Z" fill="white"/>
</svg>
